<svg aria-hidden="true" style="position: absolute; width: 0; height: 0; overflow: hidden;" version="1.1" xmlns="http://www.w3.org/2000/svg" xmlns:xlink="http://www.w3.org/1999/xlink">
<defs>
<symbol id="anten" viewBox="0 0 32 32">
<path fill="#2e2f42" style="fill: var(--color1, #2e2f42)" d="M30.773 22.098l-8.443-8.505 0.937-4.615c0.242 0.094 0.499 0.144 0.758 0.146h0.006c1.192 0.014 2.17-0.941 2.184-2.133s-0.941-2.17-2.133-2.184c-1.192-0.014-2.17 0.941-2.184 2.133-0.003 0.255 0.039 0.509 0.125 0.749l-4.96 0.605-8.091-8.133c-0.099-0.101-0.235-0.159-0.377-0.16-0.14 0.001-0.274 0.056-0.373 0.155l-1.513 1.504c-0.208 0.208-0.208 0.546 0 0.754l0.814 0.826c-3.153 5.798-2.129 12.978 2.519 17.663 0.043 0.041 0.092 0.074 0.146 0.098-0.034 0.18-0.051 0.364-0.052 0.547v6.187h-6.4c-1.472 0.002-2.665 1.195-2.667 2.667v1.067c0 0.295 0.239 0.533 0.533 0.533h24.533c0.295 0 0.533-0.239 0.533-0.533v-1.067c-0.002-1.472-1.195-2.665-2.667-2.667h-6.4v-2.742c1.003 0.21 2.024 0.317 3.049 0.32 2.458-0.003 4.877-0.615 7.040-1.783l0.818 0.823c0.099 0.101 0.235 0.159 0.377 0.16 0.14-0.001 0.274-0.056 0.373-0.155l1.513-1.504c0.208-0.208 0.208-0.546 0-0.754zM23.28 6.233c0.418-0.415 1.093-0.414 1.509 0.004s0.414 1.093-0.004 1.508c-0.2 0.199-0.47 0.31-0.752 0.31h-0.003c-0.589-0.003-1.064-0.483-1.061-1.072 0.002-0.282 0.115-0.552 0.314-0.751h-0.002zM22.024 9.738l-0.598 2.946-1.175-1.182 1.774-1.763zM21.419 8.836l-1.92 1.909-1.485-1.493 3.405-0.415zM24.004 28.8c0.884 0 1.6 0.716 1.6 1.6v0.533h-23.467v-0.533c0-0.884 0.716-1.6 1.6-1.6h20.267zM16.537 26.667v1.067h-5.333v-1.067h5.333zM11.204 25.6v-4.053c0-1.294 1.196-2.347 2.667-2.347s2.667 1.053 2.667 2.347v4.053h-5.333zM17.604 23.904v-2.357c0-1.882-1.675-3.413-3.733-3.413-1.331-0.020-2.576 0.657-3.281 1.786-4.058-4.274-4.971-10.645-2.279-15.887l18.602 18.708c-2.872 1.461-6.165 1.873-9.309 1.163zM28.893 23.22l-21.057-21.181 0.755-0.752 7.935 7.98c0.004 0 0.006 0.007 0.010 0.010l13.115 13.191-0.757 0.752z"></path>
<path fill="#4d5ae5" style="fill: var(--color2, #4d5ae5)" d="M13.876 20.267h-0.005c-0.884-0.001-1.601 0.714-1.602 1.598s0.714 1.601 1.598 1.602h0.005c0.884 0.001 1.601-0.714 1.602-1.598s-0.714-1.601-1.598-1.602zM14.249 22.245c-0.1 0.1-0.236 0.156-0.378 0.155-0.295-0.002-0.532-0.242-0.531-0.536 0.001-0.141 0.057-0.276 0.157-0.375s0.233-0.154 0.373-0.155c0.295 0.002 0.532 0.242 0.531 0.536-0.001 0.141-0.057 0.276-0.157 0.375h0.005z"></path>
</symbol>



<symbol id="clock" viewBox="0 0 64 64" fill="none">
<path d="M62.5933 30.6025C62.5899 13.6978 48.8828 -0.00341734 31.9775 6.39362e-07C15.0728 0.00341861 1.37158 13.7109 1.375 30.6157C1.37793 43.9316 9.98877 55.7178 22.6738 59.7681C22.7949 59.8062 22.9209 59.8257 23.0474 59.8252C23.2886 59.8247 23.5249 59.7603 23.7324 59.6377C24.0024 59.478 24.2041 59.2241 24.2988 58.9248L32.0288 34.4248C34.1421 34.4141 35.8462 32.6919 35.835 30.5791C35.8242 28.4658 34.1025 26.7617 31.9893 26.7725C31.4209 26.7749 30.8599 26.9058 30.3491 27.1553L20.1372 16.9419C19.6304 16.4526 18.8232 16.4668 18.334 16.9731C17.8564 17.4678 17.8564 18.251 18.334 18.7456L28.5405 28.9639C27.7573 30.5625 28.2051 32.4922 29.6133 33.582L22.248 56.9277C7.69238 51.5659 0.239258 35.4199 5.60108 20.8643C10.9629 6.30859 27.1089 -1.14453 41.6646 4.21729C56.2202 9.5791 63.6733 25.7256 58.3115 40.2808C55.6919 47.3921 50.3096 53.1431 43.3872 56.2275L42.5913 52.479C42.4458 51.79 41.7686 51.3496 41.0796 51.4956C40.8623 51.542 40.6606 51.6441 40.4946 51.792L32.8208 58.6431C32.2944 59.1113 32.2476 59.9175 32.7163 60.4439C32.8687 60.6148 33.064 60.7417 33.2827 60.8115L43.0801 63.9385C43.7505 64.1538 44.4688 63.7852 44.6841 63.1143C44.7524 62.9024 44.7637 62.6768 44.7178 62.459L43.9356 58.7808C55.2642 54.0049 62.6196 42.8965 62.5933 30.6025ZM31.9844 29.3272C32.6885 29.3272 33.2598 29.8984 33.2598 30.6025C33.2598 31.3071 32.6885 31.8779 31.9844 31.8779C31.2798 31.8779 30.709 31.3071 30.709 30.6025C30.709 29.8984 31.2798 29.3272 31.9844 29.3272ZM36.1851 59.0552L40.5532 55.1587L41.7588 60.8394L36.1851 59.0552Z" fill="#2E2F42"/>
<path d="M30.709 6.37012V8.9209C30.709 9.62549 31.2798 10.1963 31.9844 10.1963C32.6885 10.1963 33.2598 9.62549 33.2598 8.9209V6.37012C33.2598 5.66602 32.6885 5.09473 31.9844 5.09473C31.2798 5.09473 30.709 5.66602 30.709 6.37012Z" fill="#4D5AE5"/>
<path d="M7.75195 29.3271C7.04736 29.3271 6.47656 29.8984 6.47656 30.6025C6.47656 31.3071 7.04736 31.8779 7.75195 31.8779H10.3027C11.0073 31.8779 11.5781 31.3071 11.5781 30.6025C11.5781 29.8984 11.0073 29.3271 10.3027 29.3271H7.75195Z" fill="#4D5AE5"/>
<path d="M56.2162 31.8779C56.9208 31.8779 57.4916 31.3071 57.4916 30.6025C57.4916 29.8984 56.9208 29.3271 56.2162 29.3271H53.6655C52.9614 29.3271 52.3901 29.8984 52.3901 30.6025C52.3901 31.3071 52.9614 31.8779 53.6655 31.8779H56.2162Z" fill="#4D5AE5"/>
</symbol>



<symbol id="diagram" viewBox="0 0 64 64" fill="none">
<path d="M29.851 29.9292H31.9833V39.5242H29.851V29.9292Z" fill="#4D5AE5"/>
<path d="M38.3799 34.1936H40.5121V39.5242H38.3799V34.1936Z" fill="#4D5AE5"/>
<path d="M21.3222 37.392H23.4544V39.5242H21.3222V37.392Z" fill="#4D5AE5"/>
<path d="M14.9255 36.3258H17.0577V39.5241H14.9255V36.3258Z" fill="#4D5AE5"/>
<path d="M3.19833 56.5819H54.3715C56.1378 56.5819 57.5699 55.1499 57.5699 53.3836V49.1192C57.5699 47.3529 56.1378 45.9209 54.3715 45.9209H53.3054V19.3343L59.3611 13.5977C60.7666 14.2905 62.4678 13.8699 63.3876 12.6003C64.308 11.3312 64.1789 9.58364 63.0826 8.46339C61.9863 7.34314 60.2424 7.17604 58.953 8.06776C57.6641 8.96 57.206 10.6513 57.8681 12.0719L53.3054 16.3973V13.9376C53.3054 12.1713 51.8734 10.7393 50.1071 10.7393H7.46276C5.6965 10.7393 4.26443 12.1713 4.26443 13.9376V45.9209H3.19833C1.43206 45.9209 0 47.3529 0 49.1192V53.3836C0 55.1499 1.43206 56.5819 3.19833 56.5819ZM60.7682 9.67317C61.3569 9.67317 61.8343 10.1505 61.8343 10.7393C61.8343 11.328 61.3569 11.8054 60.7682 11.8054C60.1794 11.8054 59.7021 11.328 59.7021 10.7393C59.7021 10.1505 60.1794 9.67317 60.7682 9.67317ZM6.39665 13.9376C6.39665 13.3489 6.874 12.8715 7.46276 12.8715H50.1071C50.6958 12.8715 51.1732 13.3489 51.1732 13.9376V18.4149L49.041 20.441V16.0698C49.041 15.4811 48.5636 15.0037 47.9749 15.0037H9.59498C9.00622 15.0037 8.52887 15.4811 8.52887 16.0698V42.7225C8.52887 43.3113 9.00622 43.7886 9.59498 43.7886H47.9749C48.5636 43.7886 49.041 43.3113 49.041 42.7225V23.3738L51.1732 21.3535V45.9209H6.39665V13.9376ZM15.9916 27.797C14.5492 27.7929 13.2826 28.7538 12.899 30.1442C12.5153 31.5346 13.1093 33.0094 14.3498 33.7455C15.5898 34.4815 17.1697 34.2967 18.2061 33.2936L21.912 35.1531C22.3425 35.3686 22.8646 35.2676 23.1847 34.9079L31.0624 26.0453L38.8062 31.848C39.2216 32.1593 39.8016 32.126 40.1784 31.7694L46.9088 25.3941V41.6564H10.6611V17.1359H46.9088V22.4566L39.3658 29.5997L31.5569 23.7455C31.1134 23.4134 30.4892 23.4758 30.1207 23.8897L22.1348 32.8751L19.1493 31.3821C19.1712 31.2541 19.1847 31.125 19.19 30.9953C19.19 29.2291 17.7579 27.797 15.9916 27.797ZM17.0577 30.9953C17.0577 31.5841 16.5804 32.0615 15.9916 32.0615C15.4029 32.0615 14.9255 31.5841 14.9255 30.9953C14.9255 30.4066 15.4029 29.9292 15.9916 29.9292C16.5804 29.9292 17.0577 30.4066 17.0577 30.9953ZM23.4544 48.0531H34.1155V49.1192C34.1155 49.7079 33.6381 50.1853 33.0494 50.1853H24.5205C23.9317 50.1853 23.4544 49.7079 23.4544 49.1192V48.0531ZM2.13222 49.1192C2.13222 48.5304 2.60957 48.0531 3.19833 48.0531H21.3222V49.1192C21.3222 50.8855 22.7542 52.3175 24.5205 52.3175H33.0494C34.8156 52.3175 36.2477 50.8855 36.2477 49.1192V48.0531H54.3715C54.9603 48.0531 55.4376 48.5304 55.4376 49.1192V53.3836C55.4376 53.9724 54.9603 54.4497 54.3715 54.4497H3.19833C2.60957 54.4497 2.13222 53.9724 2.13222 53.3836V49.1192Z" fill="#2E2F42"/>
</symbol>


<symbol id="astraunote" width="64" height="64" viewBox="0 0 64 64" fill="none" xmlns="http://www.w3.org/2000/svg">
<path d="M63.9481 9.04812C63.8222 8.66299 63.4895 8.38149 63.0873 8.32274L59.2665 7.76698L57.5566 4.30455C57.1983 3.57492 56.0025 3.57492 55.6441 4.30455L53.9342 7.76698L50.1133 8.32286C49.7112 8.38149 49.3784 8.66212 49.2514 9.04825C49.1266 9.43438 49.23 9.85889 49.5213 10.1416L52.2872 12.8372L51.6344 16.6431C51.5662 17.0431 51.7304 17.4474 52.0579 17.6864C52.3897 17.9275 52.8227 17.9573 53.1822 17.7674L56.5999 15.97L60.0176 17.7674C60.1733 17.8495 60.3451 17.89 60.5147 17.89C60.7354 17.89 60.9563 17.8218 61.1419 17.6863C61.4704 17.4474 61.6347 17.043 61.5654 16.643L60.9127 12.8371L63.6786 10.1415C63.9684 9.85776 64.073 9.43425 63.9481 9.04812ZM59.0223 11.702C58.7717 11.9463 58.6564 12.3004 58.7162 12.6461L59.098 14.8743L57.097 13.8226C56.9413 13.7404 56.7706 13.6999 56.5999 13.6999C56.4292 13.6999 56.2596 13.7404 56.1027 13.8226L54.1016 14.8743L54.4835 12.6461C54.5432 12.3004 54.428 11.9474 54.1773 11.702L52.5571 10.1234L54.795 9.79801C55.1427 9.74788 55.4425 9.52926 55.5982 9.2145L56.5988 7.18785L57.5993 9.2145C57.755 9.52913 58.0548 9.74788 58.4025 9.79801L60.6404 10.1234L59.0223 11.702Z" fill="#4D5AE5"/>
<path d="M52.2669 41.0444H50.1335V43.1778H52.2669V41.0444Z" fill="#4D5AE5"/>
<path d="M52.2669 45.3112H50.1335V47.4446H52.2669V45.3112Z" fill="#4D5AE5"/>
<path d="M54.4003 43.1778H52.2669V45.3112H54.4003V43.1778Z" fill="#4D5AE5"/>
<path d="M50.1337 43.1778H48.0003V45.3112H50.1337V43.1778Z" fill="#4D5AE5"/>
<path d="M44.8002 52.778H42.6668V54.9113H44.8002V52.778Z" fill="#4D5AE5"/>
<path d="M44.8002 57.0446H42.6668V59.1781H44.8002V57.0446Z" fill="#4D5AE5"/>
<path d="M46.9336 54.9113H44.8002V57.0448H46.9336V54.9113Z" fill="#4D5AE5"/>
<path d="M42.6668 54.9113H40.5334V57.0448H42.6668V54.9113Z" fill="#4D5AE5"/>
<path d="M32 48.5113H29.8666V50.6447H32V48.5113Z" fill="#4D5AE5"/>
<path d="M32 52.778H29.8666V54.9113H32V52.778Z" fill="#4D5AE5"/>
<path d="M34.1334 50.6445H32V52.7779H34.1334V50.6445Z" fill="#4D5AE5"/>
<path d="M29.8666 50.6445H27.7332V52.7779H29.8666V50.6445Z" fill="#4D5AE5"/>
<path d="M11.733 12.2439H9.59964V14.3773H11.733V12.2439Z" fill="#4D5AE5"/>
<path d="M11.733 16.5108H9.59964V18.6442H11.733V16.5108Z" fill="#4D5AE5"/>
<path d="M13.8663 14.3774H11.7329V16.5108H13.8663V14.3774Z" fill="#4D5AE5"/>
<path d="M9.59964 14.3774H7.46624V16.5108H9.59964V14.3774Z" fill="#4D5AE5"/>
<path d="M49.4295 28.3189C48.8546 27.5434 48.0109 27.0443 47.053 26.9098C46.0909 26.7733 45.1415 27.026 44.3734 27.6138L41.8699 29.5327L41.8688 29.5338L38.0735 32.368L35.3577 31.2864C40.2004 29.1136 43.5851 24.2698 43.5851 18.6462C43.5851 11.0002 37.3396 4.77933 29.6627 4.77933C21.9858 4.77933 15.7405 11.0002 15.7405 18.6462C15.7405 21.4175 16.5693 23.9945 17.9805 26.163L12.4529 26.115C12.4497 26.115 12.4466 26.115 12.4433 26.115C12.4262 26.115 12.4124 26.1235 12.3964 26.1247C12.2908 26.1289 12.1873 26.1503 12.0861 26.1865C12.0604 26.1962 12.0338 26.2015 12.0093 26.2132C11.9966 26.2185 11.9837 26.2195 11.9709 26.2259L5.50471 29.4185C5.50359 29.4185 5.50259 29.4185 5.50259 29.4195L1.71578 31.2405C1.67415 31.2586 1.63153 31.2831 1.5899 31.3109C0.0805013 32.3156 -0.433632 34.289 0.393131 35.9018C0.833638 36.7594 1.58352 37.391 2.50516 37.68C2.86042 37.7908 3.22305 37.8453 3.58356 37.8453C4.16282 37.8453 4.7367 37.7035 5.26246 37.423L8.038 35.9467L12.5661 33.6085L15.2797 33.5925L4.39632 44.4237C4.39532 44.4248 4.39419 44.4248 4.39307 44.4258L1.71565 47.0925C1.08314 47.7219 0.735387 48.557 0.735387 49.4478C0.735387 50.3374 1.08314 51.1747 1.71565 51.8052C2.36529 52.4516 3.21968 52.7758 4.07406 52.7758C4.92958 52.7758 5.78284 52.4516 6.4346 51.8052L9.06289 49.1875L12.5446 46.588L14.3462 48.3821L10.8229 51.8904C10.8219 51.8916 10.8208 51.8916 10.8197 51.8926L8.14225 54.5592C7.50974 55.1886 7.16199 56.0237 7.16199 56.9145C7.16199 57.8041 7.50974 58.6414 8.14225 59.2719C8.79189 59.9183 9.6474 60.2426 10.5018 60.2426C11.3562 60.2426 12.2117 59.9183 12.8623 59.2719L15.5407 56.6052L19.8256 52.3386C19.8267 52.3374 19.8267 52.3364 19.8277 52.3353L21.847 50.3353L21.8395 50.3278C21.8522 50.315 21.8703 50.3106 21.8832 50.2969L32.2151 38.9805L39.1571 39.9682C39.2072 39.9757 39.2574 39.9789 39.3075 39.9789C39.4366 39.9789 39.5614 39.948 39.6819 39.9021C39.7171 39.8894 39.748 39.8722 39.7811 39.8552C39.8195 39.836 39.86 39.8254 39.8964 39.8009L46.3231 35.5342C46.3466 35.5182 46.3594 35.4925 46.3817 35.4755C46.4074 35.4553 46.4394 35.4468 46.4627 35.4243L49.0056 33.0424C50.3288 31.8026 50.5112 29.7717 49.4295 28.3189ZM4.26082 35.5403C3.91419 35.7259 3.52056 35.7632 3.14405 35.6438C2.77067 35.5275 2.46779 35.2725 2.29066 34.928C1.96853 34.3008 2.15516 33.537 2.71942 33.1243L5.34671 31.8602L5.97922 33.7088L6.24485 34.4853L4.26082 35.5403ZM11.2551 31.8849L8.1585 33.4849L7.64762 31.9915L7.28074 30.9184L11.3342 28.9172L11.2551 31.8849ZM41.4539 18.644C41.4539 20.4808 41.0155 22.2132 40.256 23.763L31.8933 19.9646C31.8057 18.8179 31.2106 17.8142 30.3167 17.189L33.2448 7.46837C38.0001 8.98102 41.4539 13.4173 41.4539 18.644ZM17.876 18.644C17.876 12.1746 23.1646 6.91049 29.665 6.91049C30.1706 6.91049 30.6655 6.95311 31.1551 7.01499L28.2911 16.5224C28.2527 16.5213 28.2164 16.5106 28.1769 16.5106C26.1118 16.5106 24.4318 18.1853 24.4318 20.2441C24.4318 22.3027 26.1118 23.9775 28.1769 23.9775C29.5657 23.9775 30.7657 23.2106 31.4132 22.0883L39.1381 25.5978C36.9887 28.4906 33.5487 30.3776 29.6648 30.3776C23.1646 30.3776 17.876 25.1135 17.876 18.644ZM29.7887 20.2441C29.7887 21.1262 29.0655 21.8441 28.1769 21.8441C27.2884 21.8441 26.5652 21.1262 26.5652 20.2441C26.5652 19.3619 27.2884 18.644 28.1769 18.644C29.0655 18.644 29.7887 19.3619 29.7887 20.2441ZM4.9297 50.2925C4.4572 50.7608 3.69231 50.7598 3.22093 50.2936C2.99367 50.0664 2.86892 49.7668 2.86892 49.4478C2.86892 49.1299 2.99367 48.8301 3.22093 48.6051L5.14508 46.6882L6.84748 48.3832L4.9297 50.2925ZM11.3574 57.7594C10.8849 58.2276 10.119 58.2288 9.64753 57.7605C9.42027 57.5333 9.29552 57.2336 9.29552 56.9146C9.29552 56.5967 9.42027 56.297 9.64753 56.072L11.5729 54.1541L12.3783 54.9552L13.2765 55.8491L11.3574 57.7594ZM18.3208 50.8217C18.3197 50.8227 18.3187 50.8227 18.3175 50.8238L14.7879 54.3438L13.9825 53.5427L13.0843 52.6488L16.6108 49.1384C16.6108 49.1384 16.6108 49.1384 16.6108 49.1374C16.6119 49.1363 16.6129 49.1363 16.614 49.1353C16.694 49.0553 16.7441 48.9593 16.7933 48.8644C16.8071 48.8366 16.8338 48.8131 16.8455 48.7844C16.8786 48.7023 16.8839 48.6138 16.8968 48.5272C16.9031 48.4781 16.9245 48.4324 16.9245 48.3821C16.9245 48.3106 16.8989 48.2414 16.884 48.1709C16.8713 48.1069 16.8713 48.0417 16.8466 47.98C16.8061 47.8797 16.7368 47.7912 16.6643 47.7047C16.644 47.6812 16.6365 47.6514 16.6141 47.629C16.6141 47.629 16.6141 47.629 16.613 47.629C16.6119 47.628 16.6119 47.6257 16.6109 47.6247L13.397 44.4247C13.3628 44.3906 13.3191 44.3767 13.2807 44.3479C13.2242 44.3042 13.1698 44.2637 13.1068 44.2327C13.0461 44.2028 12.9842 44.1847 12.9202 44.1676C12.852 44.1483 12.7858 44.1334 12.7143 44.1281C12.6492 44.1238 12.5884 44.1302 12.5234 44.1377C12.4519 44.1462 12.3848 44.1558 12.3154 44.1782C12.2482 44.1996 12.1886 44.2326 12.1267 44.2678C12.0872 44.2902 12.0424 44.2977 12.0051 44.3254L8.45838 46.973L6.65673 45.1788L11.4547 40.4065L20.1759 48.9838L18.3208 50.8217ZM31.9584 36.7883C31.9275 36.7841 31.8986 36.7958 31.8678 36.7937C31.7899 36.7894 31.7153 36.7948 31.6374 36.8076C31.5766 36.8182 31.519 36.8299 31.4614 36.8502C31.3931 36.8737 31.3312 36.9057 31.2682 36.9441C31.2085 36.9803 31.1541 37.0187 31.1019 37.0667C31.0762 37.0891 31.0454 37.0998 31.0219 37.1253L21.6253 47.4167L12.9692 38.9035L18.6354 33.2671C19.0525 32.8511 19.0547 32.1759 18.6387 31.7577C18.4285 31.5476 18.1523 31.4441 17.876 31.4452V31.4442L13.4386 31.4709L13.4941 28.2559L19.7022 28.3093C22.2324 30.8971 25.7609 32.511 29.665 32.511C30.5396 32.511 31.393 32.4204 32.2239 32.2656C32.3039 32.3296 32.3828 32.3948 32.4831 32.4353L37.3025 34.3553L37.6075 35.8721L37.9637 37.6427L31.9584 36.7883ZM40.0406 37.1446L39.4145 34.0288L42.3073 31.8687L43.0647 32.8735L44.2007 34.3818L40.0406 37.1446ZM47.5479 31.4826L45.8721 33.0528L44.0097 30.5802L45.6726 29.3056C45.983 29.0667 46.3745 28.9696 46.7585 29.0197C47.1446 29.0741 47.486 29.2757 47.7185 29.5882C48.1516 30.1717 48.078 30.9856 47.5479 31.4826Z" fill="#2E2F42"/>
<path d="M27.2042 37.0881L22.9182 32.8214C22.5033 32.4065 21.8291 32.4065 21.4131 32.8214L17.1283 37.0881C16.9278 37.2897 16.8146 37.5606 16.8146 37.8443C16.8146 38.1281 16.9266 38.4001 17.1283 38.6006L21.4131 42.8673C21.6211 43.0742 21.8942 43.1777 22.1662 43.1777C22.4382 43.1777 22.7112 43.0742 22.9182 42.8673L27.2042 38.6006C27.4047 38.4001 27.5188 38.1281 27.5188 37.8443C27.5188 37.5606 27.4057 37.2886 27.2042 37.0881ZM22.1662 40.606L19.3928 37.8443L22.1662 35.0827L24.9406 37.8443L22.1662 40.606Z" fill="#2E2F42"/>
<path d="M34.3285 10.1415L33.8133 12.2131C33.9552 12.2483 37.2886 13.1166 37.2886 16.5108H39.422C39.4219 12.4765 36.0907 10.5799 34.3285 10.1415Z" fill="#2E2F42"/>
<path d="M39.422 18.644H37.2886V20.7775H39.422V18.644Z" fill="#2E2F42"/>
</symbol>

<symbol id="astr" width="51" height="57" viewBox="0 0 51 57" fill="none" xmlns="http://www.w3.org/2000/svg">
<path d="M49.4295 24.3189C48.8546 23.5434 48.0109 23.0443 47.053 22.9098C46.0909 22.7733 45.1415 23.026 44.3734 23.6138L41.8699 25.5327L41.8688 25.5338L38.0735 28.368L35.3577 27.2864C40.2004 25.1136 43.5851 20.2698 43.5851 14.6462C43.5851 7.00017 37.3396 0.779327 29.6627 0.779327C21.9858 0.779327 15.7405 7.00017 15.7405 14.6462C15.7405 17.4175 16.5693 19.9945 17.9805 22.163L12.4529 22.115C12.4497 22.115 12.4466 22.115 12.4433 22.115C12.4262 22.115 12.4124 22.1235 12.3964 22.1247C12.2908 22.1289 12.1873 22.1503 12.0861 22.1865C12.0604 22.1962 12.0338 22.2015 12.0093 22.2132C11.9966 22.2185 11.9837 22.2195 11.9709 22.2259L5.50471 25.4185C5.50359 25.4185 5.50259 25.4185 5.50259 25.4195L1.71578 27.2405C1.67415 27.2586 1.63153 27.2831 1.5899 27.3109C0.0805013 28.3156 -0.433632 30.289 0.393131 31.9018C0.833638 32.7594 1.58352 33.391 2.50516 33.68C2.86042 33.7908 3.22305 33.8453 3.58356 33.8453C4.16282 33.8453 4.7367 33.7035 5.26246 33.423L8.038 31.9467L12.5661 29.6085L15.2797 29.5925L4.39632 40.4237C4.39532 40.4248 4.39419 40.4248 4.39307 40.4258L1.71565 43.0925C1.08314 43.7219 0.735387 44.557 0.735387 45.4478C0.735387 46.3374 1.08314 47.1747 1.71565 47.8052C2.36529 48.4516 3.21968 48.7758 4.07406 48.7758C4.92958 48.7758 5.78284 48.4516 6.4346 47.8052L9.06289 45.1875L12.5446 42.588L14.3462 44.3821L10.8229 47.8904C10.8219 47.8916 10.8208 47.8916 10.8197 47.8926L8.14225 50.5592C7.50974 51.1886 7.16199 52.0237 7.16199 52.9145C7.16199 53.8041 7.50974 54.6414 8.14225 55.2719C8.79189 55.9183 9.6474 56.2426 10.5018 56.2426C11.3562 56.2426 12.2117 55.9183 12.8623 55.2719L15.5407 52.6052L19.8256 48.3386C19.8267 48.3374 19.8267 48.3364 19.8277 48.3353L21.847 46.3353L21.8395 46.3278C21.8522 46.315 21.8703 46.3106 21.8832 46.2969L32.2151 34.9805L39.1571 35.9682C39.2072 35.9757 39.2574 35.9789 39.3075 35.9789C39.4366 35.9789 39.5614 35.948 39.6819 35.9021C39.7171 35.8894 39.748 35.8722 39.7811 35.8552C39.8195 35.836 39.86 35.8254 39.8964 35.8009L46.3231 31.5342C46.3466 31.5182 46.3594 31.4925 46.3817 31.4755C46.4074 31.4553 46.4394 31.4468 46.4627 31.4243L49.0056 29.0424C50.3288 27.8026 50.5112 25.7717 49.4295 24.3189ZM4.26082 31.5403C3.91419 31.7259 3.52056 31.7632 3.14405 31.6438C2.77067 31.5275 2.46779 31.2725 2.29066 30.928C1.96853 30.3008 2.15516 29.537 2.71942 29.1243L5.34671 27.8602L5.97922 29.7088L6.24485 30.4853L4.26082 31.5403ZM11.2551 27.8849L8.1585 29.4849L7.64762 27.9915L7.28074 26.9184L11.3342 24.9172L11.2551 27.8849ZM41.4539 14.644C41.4539 16.4808 41.0155 18.2132 40.256 19.763L31.8933 15.9646C31.8057 14.8179 31.2106 13.8142 30.3167 13.189L33.2448 3.46837C38.0001 4.98102 41.4539 9.41733 41.4539 14.644ZM17.876 14.644C17.876 8.17456 23.1646 2.91049 29.665 2.91049C30.1706 2.91049 30.6655 2.95311 31.1551 3.01499L28.2911 12.5224C28.2527 12.5213 28.2164 12.5106 28.1769 12.5106C26.1118 12.5106 24.4318 14.1853 24.4318 16.2441C24.4318 18.3027 26.1118 19.9775 28.1769 19.9775C29.5657 19.9775 30.7657 19.2106 31.4132 18.0883L39.1381 21.5978C36.9887 24.4906 33.5487 26.3776 29.6648 26.3776C23.1646 26.3776 17.876 21.1135 17.876 14.644ZM29.7887 16.2441C29.7887 17.1262 29.0655 17.8441 28.1769 17.8441C27.2884 17.8441 26.5652 17.1262 26.5652 16.2441C26.5652 15.3619 27.2884 14.644 28.1769 14.644C29.0655 14.644 29.7887 15.3619 29.7887 16.2441ZM4.9297 46.2925C4.4572 46.7608 3.69231 46.7598 3.22093 46.2936C2.99367 46.0664 2.86892 45.7668 2.86892 45.4478C2.86892 45.1299 2.99367 44.8301 3.22093 44.6051L5.14508 42.6882L6.84748 44.3832L4.9297 46.2925ZM11.3574 53.7594C10.8849 54.2276 10.119 54.2288 9.64753 53.7605C9.42027 53.5333 9.29552 53.2336 9.29552 52.9146C9.29552 52.5967 9.42027 52.297 9.64753 52.072L11.5729 50.1541L12.3783 50.9552L13.2765 51.8491L11.3574 53.7594ZM18.3208 46.8217C18.3197 46.8227 18.3187 46.8227 18.3175 46.8238L14.7879 50.3438L13.9825 49.5427L13.0843 48.6488L16.6108 45.1384C16.6108 45.1384 16.6108 45.1384 16.6108 45.1374C16.6119 45.1363 16.6129 45.1363 16.614 45.1353C16.694 45.0553 16.7441 44.9593 16.7933 44.8644C16.8071 44.8366 16.8338 44.8131 16.8455 44.7844C16.8786 44.7023 16.8839 44.6138 16.8968 44.5272C16.9031 44.4781 16.9245 44.4324 16.9245 44.3821C16.9245 44.3106 16.8989 44.2414 16.884 44.1709C16.8713 44.1069 16.8713 44.0417 16.8466 43.98C16.8061 43.8797 16.7368 43.7912 16.6643 43.7047C16.644 43.6812 16.6365 43.6514 16.6141 43.629C16.6141 43.629 16.6141 43.629 16.613 43.629C16.6119 43.628 16.6119 43.6257 16.6109 43.6247L13.397 40.4247C13.3628 40.3906 13.3191 40.3767 13.2807 40.3479C13.2242 40.3042 13.1698 40.2637 13.1068 40.2327C13.0461 40.2028 12.9842 40.1847 12.9202 40.1676C12.852 40.1483 12.7858 40.1334 12.7143 40.1281C12.6492 40.1238 12.5884 40.1302 12.5234 40.1377C12.4519 40.1462 12.3848 40.1558 12.3154 40.1782C12.2482 40.1996 12.1886 40.2326 12.1267 40.2678C12.0872 40.2902 12.0424 40.2977 12.0051 40.3254L8.45838 42.973L6.65673 41.1788L11.4547 36.4065L20.1759 44.9838L18.3208 46.8217ZM31.9584 32.7883C31.9275 32.7841 31.8986 32.7958 31.8678 32.7937C31.7899 32.7894 31.7153 32.7948 31.6374 32.8076C31.5766 32.8182 31.519 32.8299 31.4614 32.8502C31.3931 32.8737 31.3312 32.9057 31.2682 32.9441C31.2085 32.9803 31.1541 33.0187 31.1019 33.0667C31.0762 33.0891 31.0454 33.0998 31.0219 33.1253L21.6253 43.4167L12.9692 34.9035L18.6354 29.2671C19.0525 28.8511 19.0547 28.1759 18.6387 27.7577C18.4285 27.5476 18.1523 27.4441 17.876 27.4452V27.4442L13.4386 27.4709L13.4941 24.2559L19.7022 24.3093C22.2324 26.8971 25.7609 28.511 29.665 28.511C30.5396 28.511 31.393 28.4204 32.2239 28.2656C32.3039 28.3296 32.3828 28.3948 32.4831 28.4353L37.3025 30.3553L37.6075 31.8721L37.9637 33.6427L31.9584 32.7883ZM40.0406 33.1446L39.4145 30.0288L42.3073 27.8687L43.0647 28.8735L44.2007 30.3818L40.0406 33.1446ZM47.5479 27.4826L45.8721 29.0528L44.0097 26.5802L45.6726 25.3056C45.983 25.0667 46.3745 24.9696 46.7585 25.0197C47.1446 25.0741 47.486 25.2757 47.7185 25.5882C48.1516 26.1717 48.078 26.9856 47.5479 27.4826Z" fill="#2E2F42"/>
</symbol>


<symbol id="instagram" viewBox="0 0 40 40" fill="none" >
<path d="M40 19.9999C40 25.5228 37.7614 30.5228 34.1421 34.1421C30.5228 37.7614 25.5228 39.9999 20 39.9999C14.4772 39.9999 9.47715 37.7614 5.85786 34.1421C2.23858 30.5228 0 25.5228 0 19.9999C0 14.4771 2.23858 9.47709 5.85786 5.8578C9.47715 2.23852 14.4772 -6.10352e-05 20 -6.10352e-05C25.5228 -6.10352e-05 30.5228 2.23852 34.1421 5.8578C37.7614 9.47709 40 14.4771 40 19.9999Z" fill="#4D5AE5"/>

<path d="M27.9843 16.704C27.9468 15.8538 27.8093 15.2694 27.6124 14.7629C27.4092 14.2253 27.0967 13.7441 26.6872 13.344C26.2871 12.9376 25.8026 12.6219 25.2713 12.4219C24.7619 12.225 24.1805 12.0875 23.3303 12.05C22.4738 12.0093 22.2019 11.9999 20.0296 11.9999C17.8573 11.9999 17.5854 12.0093 16.7321 12.0468C15.882 12.0843 15.2975 12.2219 14.7912 12.4187C14.2535 12.6219 13.7722 12.9344 13.3721 13.344C12.9658 13.7441 12.6501 14.2285 12.45 14.7599C12.2531 15.2694 12.1156 15.8507 12.0781 16.7008C12.0375 17.5573 12.0281 17.8292 12.0281 20.0015C12.0281 22.1738 12.0375 22.4457 12.075 23.299C12.1124 24.1492 12.25 24.7336 12.447 25.2401C12.6501 25.7777 12.9658 26.259 13.3721 26.6591C13.7722 27.0654 14.2567 27.3811 14.788 27.5811C15.2975 27.778 15.8788 27.9155 16.7291 27.953C17.5823 27.9906 17.8543 27.9999 20.0266 27.9999C22.1989 27.9999 22.4708 27.9906 23.3241 27.953C24.1742 27.9155 24.7587 27.778 25.265 27.5811C26.3403 27.1654 27.1904 26.3152 27.6062 25.2401C27.803 24.7306 27.9406 24.1492 27.9781 23.299C28.0156 22.4457 28.025 22.1738 28.025 20.0015C28.025 17.8292 28.0218 17.5573 27.9843 16.704ZM26.5435 23.2365C26.509 24.0179 26.3778 24.4399 26.2684 24.7212C25.9995 25.4182 25.4463 25.9714 24.7493 26.2403C24.468 26.3497 24.043 26.4809 23.2646 26.5152C22.4207 26.5528 22.1676 26.5621 20.0328 26.5621C17.898 26.5621 17.6417 26.5528 16.8009 26.5152C16.0195 26.4809 15.5975 26.3497 15.3162 26.2403C14.9693 26.1121 14.6536 25.9089 14.3973 25.6432C14.1316 25.3838 13.9285 25.0712 13.8003 24.7243C13.6909 24.443 13.5596 24.0179 13.5253 23.2397C13.4877 22.3958 13.4784 22.1425 13.4784 20.0077C13.4784 17.8729 13.4877 17.6166 13.5253 16.7759C13.5596 15.9945 13.6909 15.5725 13.8003 15.2912C13.9285 14.9442 14.1316 14.6286 14.4005 14.3722C14.6598 14.1066 14.9724 13.9034 15.3194 13.7753C15.6007 13.6659 16.0258 13.5347 16.804 13.5002C17.6479 13.4627 17.9012 13.4533 20.0359 13.4533C22.1738 13.4533 22.4269 13.4627 23.2678 13.5002C24.0492 13.5347 24.4712 13.6659 24.7525 13.7753C25.0993 13.9034 25.4151 14.1066 25.6714 14.3722C25.937 14.6317 26.1402 14.9442 26.2684 15.2912C26.3778 15.5725 26.509 15.9975 26.5435 16.7759C26.581 17.6198 26.5904 17.8729 26.5904 20.0077C26.5904 22.1425 26.581 22.3926 26.5435 23.2365Z" fill="#F4F4FD"/>
<path d="M20.0297 15.8913C17.7606 15.8913 15.9195 17.7322 15.9195 20.0015C15.9195 22.2707 17.7606 24.1117 20.0297 24.1117C22.2989 24.1117 24.1398 22.2707 24.1398 20.0015C24.1398 17.7322 22.2989 15.8913 20.0297 15.8913ZM20.0297 22.6676C18.5576 22.6676 17.3635 21.4737 17.3635 20.0015C17.3635 18.5293 18.5576 17.3353 20.0297 17.3353C21.5019 17.3353 22.6958 18.5293 22.6958 20.0015C22.6958 21.4737 21.5019 22.6676 20.0297 22.6676Z" fill="#F4F4FD"/>
<path d="M25.262 15.7288C25.262 16.2587 24.8324 16.6884 24.3024 16.6884C23.7725 16.6884 23.3428 16.2587 23.3428 15.7288C23.3428 15.1988 23.7725 14.7693 24.3024 14.7693C24.8324 14.7693 25.262 15.1988 25.262 15.7288Z" fill="#F4F4FD"/>

</symbol>


<symbol id="twitter" viewBox="0 0 40 40" fill="none">
<path d="M40 19.9999C40 25.5228 37.7614 30.5228 34.1421 34.1421C30.5228 37.7614 25.5228 39.9999 20 39.9999C14.4772 39.9999 9.47715 37.7614 5.85786 34.1421C2.23858 30.5228 0 25.5228 0 19.9999C0 14.4771 2.23858 9.47709 5.85786 5.8578C9.47715 2.23852 14.4772 -6.10352e-05 20 -6.10352e-05C25.5228 -6.10352e-05 30.5228 2.23852 34.1421 5.8578C37.7614 9.47709 40 14.4771 40 19.9999Z" fill="#4D5AE5"/>
<path d="M28 15.0389C27.405 15.2999 26.771 15.4729 26.11 15.5569C26.79 15.1509 27.309 14.5129 27.553 13.7439C26.919 14.1219 26.219 14.3889 25.473 14.5379C24.871 13.8969 24.013 13.4999 23.077 13.4999C21.261 13.4999 19.799 14.9739 19.799 16.7809C19.799 17.0409 19.821 17.2909 19.875 17.5289C17.148 17.3959 14.735 16.0889 13.114 14.0979C12.831 14.5889 12.665 15.1509 12.665 15.7559C12.665 16.8919 13.25 17.8989 14.122 18.4819C13.595 18.4719 13.078 18.3189 12.64 18.0779C12.64 18.0879 12.64 18.1009 12.64 18.1139C12.64 19.7079 13.777 21.0319 15.268 21.3369C15.001 21.4099 14.71 21.4449 14.408 21.4449C14.198 21.4449 13.986 21.4329 13.787 21.3889C14.212 22.6879 15.418 23.6429 16.852 23.6739C15.736 24.5469 14.319 25.0729 12.785 25.0729C12.516 25.0729 12.258 25.0609 12 25.0279C13.453 25.9649 15.175 26.4999 17.032 26.4999C23.068 26.4999 26.368 21.4999 26.368 17.1659C26.368 17.0209 26.363 16.8809 26.356 16.7419C27.007 16.2799 27.554 15.7029 28 15.0389Z" fill="#F4F4FD"/>

</symbol>



<symbol id="facebook" viewBox="0 0 40 40" fill="none">
<path d="M40 19.9999C40 25.5228 37.7614 30.5228 34.1421 34.1421C30.5228 37.7614 25.5228 39.9999 20 39.9999C14.4772 39.9999 9.47715 37.7614 5.85786 34.1421C2.23858 30.5228 0 25.5228 0 19.9999C0 14.4771 2.23858 9.47709 5.85786 5.8578C9.47715 2.23852 14.4772 -6.10352e-05 20 -6.10352e-05C25.5228 -6.10352e-05 30.5228 2.23852 34.1421 5.8578C37.7614 9.47709 40 14.4771 40 19.9999Z" fill="#4D5AE5"/>

<path d="M22.6647 14.6566H24.1254V12.1126C23.8734 12.0779 23.0067 11.9999 21.9974 11.9999C19.8914 11.9999 18.4487 13.3246 18.4487 15.7593V17.9999H16.1247V20.8439H18.4487V27.9999H21.298V20.8446H23.528L23.882 18.0006H21.2974V16.0413C21.298 15.2193 21.5194 14.6566 22.6647 14.6566Z" fill="#F4F4FD"/>

</symbol>




<symbol id="linkedin" viewBox="0 0 40 40" fill="none">
<path d="M40 19.9999C40 25.5228 37.7614 30.5228 34.1421 34.1421C30.5228 37.7614 25.5228 39.9999 20 39.9999C14.4772 39.9999 9.47715 37.7614 5.85786 34.1421C2.23858 30.5228 0 25.5228 0 19.9999C0 14.4771 2.23858 9.47709 5.85786 5.8578C9.47715 2.23852 14.4772 -6.10352e-05 20 -6.10352e-05C25.5228 -6.10352e-05 30.5228 2.23852 34.1421 5.8578C37.7614 9.47709 40 14.4771 40 19.9999Z" fill="#4D5AE5"/>

<path d="M27.9961 28V27.9993H28.0001V22.1313C28.0001 19.2606 27.3821 17.0493 24.0261 17.0493C22.4128 17.0493 21.3301 17.9346 20.8881 18.774H20.8414V17.3173H17.6594V27.9993H20.9728V22.71C20.9728 21.3173 21.2368 19.9706 22.9614 19.9706C24.6608 19.9706 24.6861 21.56 24.6861 22.7993V28H27.9961Z" fill="#F4F4FD"/>
<path d="M12.264 17.3179H15.5814V27.9999H12.264V17.3179Z" fill="#F4F4FD"/>
<path d="M13.9214 11.9999C12.8607 11.9999 12.0001 12.8606 12.0001 13.9213C12.0001 14.9819 12.8607 15.8606 13.9214 15.8606C14.9821 15.8606 15.8427 14.9819 15.8427 13.9213C15.8421 12.8606 14.9814 11.9999 13.9214 11.9999V11.9999Z" fill="#F4F4FD"/>

</symbol>


<symbol id="arrow" width="24" height="24" viewBox="0 0 24 24" fill="none" xmlns="http://www.w3.org/2000/svg">
<path d="M24 2L0 13.25L7.66994 15.6172L19.5 6.375L10.5017 16.4913L10.509 16.4936L10.5 16.4913V22L14.8013 17.8183L20.2501 19.5L24 2Z" fill="white"/>
</symbol>

<symbol id="arroww"  width="165" height="40" viewBox="0 0 165 40" fill="none" xmlns="http://www.w3.org/2000/svg">
<path d="M31.3306 22.0703C31.3306 21.8359 31.2942 21.6276 31.2212 21.4453C31.1535 21.263 31.0311 21.0964 30.8541 20.9453C30.677 20.7943 30.427 20.6484 30.1041 20.5078C29.7864 20.362 29.3801 20.2135 28.8853 20.0625C28.3436 19.8958 27.8436 19.7109 27.3853 19.5078C26.9322 19.2995 26.5364 19.0599 26.1978 18.7891C25.8593 18.513 25.5962 18.1979 25.4087 17.8438C25.2212 17.4844 25.1275 17.0703 25.1275 16.6016C25.1275 16.138 25.2239 15.7161 25.4166 15.3359C25.6145 14.9557 25.8931 14.6276 26.2525 14.3516C26.6171 14.0703 27.0468 13.8542 27.5416 13.7031C28.0364 13.5469 28.5832 13.4688 29.1822 13.4688C30.0259 13.4688 30.7525 13.625 31.3619 13.9375C31.9765 14.25 32.4478 14.6693 32.7759 15.1953C33.1093 15.7214 33.2759 16.3021 33.2759 16.9375H31.3306C31.3306 16.5625 31.2499 16.2318 31.0884 15.9453C30.9322 15.6536 30.6926 15.4245 30.3697 15.2578C30.052 15.0911 29.6483 15.0078 29.1587 15.0078C28.6952 15.0078 28.3098 15.0781 28.0025 15.2188C27.6952 15.3594 27.466 15.5495 27.315 15.7891C27.164 16.0286 27.0884 16.2995 27.0884 16.6016C27.0884 16.8151 27.1379 17.0104 27.2369 17.1875C27.3358 17.3594 27.4869 17.5208 27.69 17.6719C27.8931 17.8177 28.1483 17.9557 28.4556 18.0859C28.7629 18.2161 29.1249 18.3411 29.5416 18.4609C30.1718 18.6484 30.7212 18.8568 31.19 19.0859C31.6587 19.3099 32.0494 19.5651 32.3619 19.8516C32.6744 20.138 32.9087 20.4635 33.065 20.8281C33.2212 21.1875 33.2994 21.5964 33.2994 22.0547C33.2994 22.5339 33.203 22.9661 33.0103 23.3516C32.8176 23.7318 32.5416 24.0573 32.1822 24.3281C31.828 24.5938 31.4009 24.7995 30.9009 24.9453C30.4061 25.0859 29.8541 25.1562 29.2447 25.1562C28.6978 25.1562 28.1587 25.0833 27.6275 24.9375C27.1015 24.7917 26.6223 24.5703 26.19 24.2734C25.7577 23.9714 25.414 23.5964 25.1587 23.1484C24.9035 22.6953 24.7759 22.1667 24.7759 21.5625H26.7369C26.7369 21.9323 26.7994 22.2474 26.9244 22.5078C27.0546 22.7682 27.2343 22.9818 27.4634 23.1484C27.6926 23.3099 27.9582 23.4297 28.2603 23.5078C28.5676 23.5859 28.8957 23.625 29.2447 23.625C29.703 23.625 30.0858 23.5599 30.3931 23.4297C30.7056 23.2995 30.94 23.1172 31.0962 22.8828C31.2525 22.6484 31.3306 22.3776 31.3306 22.0703ZM40.5722 23.0078V16.5469H42.4628V25H40.6816L40.5722 23.0078ZM40.8378 21.25L41.4706 21.2344C41.4706 21.8021 41.4081 22.3255 41.2831 22.8047C41.1581 23.2786 40.9654 23.6927 40.705 24.0469C40.4446 24.3958 40.1112 24.6693 39.705 24.8672C39.2987 25.0599 38.8118 25.1562 38.2441 25.1562C37.8326 25.1562 37.455 25.0964 37.1112 24.9766C36.7675 24.8568 36.4706 24.6719 36.2206 24.4219C35.9758 24.1719 35.7857 23.8464 35.6503 23.4453C35.5149 23.0443 35.4472 22.5651 35.4472 22.0078V16.5469H37.33V22.0234C37.33 22.3307 37.3665 22.5885 37.4394 22.7969C37.5123 23 37.6112 23.1641 37.7362 23.2891C37.8612 23.4141 38.0071 23.5026 38.1737 23.5547C38.3404 23.6068 38.5175 23.6328 38.705 23.6328C39.2415 23.6328 39.6633 23.5286 39.9706 23.3203C40.2831 23.1068 40.5045 22.8203 40.6347 22.4609C40.7701 22.1016 40.8378 21.6979 40.8378 21.25ZM45.0403 13H46.9231V23.1953L46.7434 25H45.0403V13ZM52.4387 20.6953V20.8594C52.4387 21.4844 52.3684 22.0599 52.2278 22.5859C52.0924 23.1068 51.8841 23.5599 51.6028 23.9453C51.3268 24.3307 50.983 24.6302 50.5716 24.8438C50.1653 25.0521 49.694 25.1562 49.1575 25.1562C48.6315 25.1562 48.1731 25.0573 47.7825 24.8594C47.3919 24.6615 47.0637 24.3802 46.7981 24.0156C46.5377 23.651 46.3268 23.2161 46.1653 22.7109C46.0039 22.2057 45.8893 21.6484 45.8216 21.0391V20.5156C45.8893 19.901 46.0039 19.3438 46.1653 18.8438C46.3268 18.3385 46.5377 17.9036 46.7981 17.5391C47.0637 17.1693 47.3893 16.8854 47.7747 16.6875C48.1653 16.4896 48.621 16.3906 49.1419 16.3906C49.6835 16.3906 50.1601 16.4948 50.5716 16.7031C50.9882 16.9115 51.3346 17.2083 51.6106 17.5938C51.8867 17.974 52.0924 18.4271 52.2278 18.9531C52.3684 19.4792 52.4387 20.0599 52.4387 20.6953ZM50.5559 20.8594V20.6953C50.5559 20.3151 50.5247 19.9583 50.4622 19.625C50.3997 19.2865 50.2955 18.9896 50.1497 18.7344C50.0091 18.4792 49.8164 18.2786 49.5716 18.1328C49.332 17.9818 49.0325 17.9062 48.6731 17.9062C48.3398 17.9062 48.0533 17.9635 47.8137 18.0781C47.5742 18.1927 47.3736 18.349 47.2122 18.5469C47.0507 18.7448 46.9231 18.974 46.8294 19.2344C46.7408 19.4948 46.6809 19.776 46.6497 20.0781V21.4922C46.6966 21.8828 46.7955 22.2422 46.9466 22.5703C47.1028 22.8932 47.3216 23.1536 47.6028 23.3516C47.8841 23.5443 48.246 23.6406 48.6887 23.6406C49.0377 23.6406 49.332 23.5703 49.5716 23.4297C49.8111 23.2891 50.0012 23.0938 50.1419 22.8438C50.2877 22.5885 50.3919 22.2917 50.4544 21.9531C50.5221 21.6146 50.5559 21.25 50.5559 20.8594ZM59.4147 22.7109C59.4147 22.5234 59.3678 22.3542 59.2741 22.2031C59.1803 22.0469 59.0006 21.9062 58.735 21.7812C58.4746 21.6562 58.0892 21.5417 57.5787 21.4375C57.1308 21.3385 56.7194 21.2214 56.3444 21.0859C55.9746 20.9453 55.6569 20.776 55.3912 20.5781C55.1256 20.3802 54.9199 20.1458 54.7741 19.875C54.6282 19.6042 54.5553 19.2917 54.5553 18.9375C54.5553 18.5938 54.6308 18.2682 54.7819 17.9609C54.9329 17.6536 55.1491 17.3828 55.4303 17.1484C55.7116 16.9141 56.0527 16.7292 56.4537 16.5938C56.86 16.4583 57.3131 16.3906 57.8131 16.3906C58.5215 16.3906 59.1282 16.5104 59.6334 16.75C60.1439 16.9844 60.5345 17.3047 60.8053 17.7109C61.0761 18.112 61.2116 18.5651 61.2116 19.0703H59.3287C59.3287 18.8464 59.2715 18.638 59.1569 18.4453C59.0475 18.2474 58.8808 18.0885 58.6569 17.9688C58.4329 17.8438 58.1517 17.7812 57.8131 17.7812C57.4902 17.7812 57.222 17.8333 57.0084 17.9375C56.8001 18.0365 56.6439 18.1667 56.5397 18.3281C56.4407 18.4896 56.3912 18.6667 56.3912 18.8594C56.3912 19 56.4173 19.1276 56.4694 19.2422C56.5267 19.3516 56.6204 19.4531 56.7506 19.5469C56.8808 19.6354 57.0579 19.7188 57.2819 19.7969C57.511 19.875 57.7975 19.9505 58.1412 20.0234C58.7871 20.1589 59.3418 20.3333 59.8053 20.5469C60.2741 20.7552 60.6334 21.026 60.8834 21.3594C61.1334 21.6875 61.2584 22.1042 61.2584 22.6094C61.2584 22.9844 61.1777 23.3281 61.0162 23.6406C60.86 23.9479 60.6308 24.2161 60.3287 24.4453C60.0267 24.6693 59.6647 24.8438 59.2428 24.9688C58.8261 25.0938 58.3574 25.1562 57.8366 25.1562C57.0709 25.1562 56.4225 25.0208 55.8912 24.75C55.36 24.474 54.9564 24.1224 54.6803 23.6953C54.4095 23.263 54.2741 22.8151 54.2741 22.3516H56.0944C56.1152 22.7005 56.2116 22.9792 56.3834 23.1875C56.5605 23.3906 56.7793 23.5391 57.0397 23.6328C57.3053 23.7214 57.5787 23.7656 57.86 23.7656C58.1985 23.7656 58.4824 23.7214 58.7116 23.6328C58.9407 23.5391 59.1152 23.4141 59.235 23.2578C59.3548 23.0964 59.4147 22.9141 59.4147 22.7109ZM67 23.6562C67.3073 23.6562 67.5833 23.5964 67.8281 23.4766C68.0781 23.3516 68.2786 23.1797 68.4297 22.9609C68.5859 22.7422 68.6719 22.4896 68.6875 22.2031H70.4609C70.4505 22.75 70.2891 23.2474 69.9766 23.6953C69.6641 24.1432 69.25 24.5 68.7344 24.7656C68.2188 25.026 67.6484 25.1562 67.0234 25.1562C66.3776 25.1562 65.8151 25.0469 65.3359 24.8281C64.8568 24.6042 64.4583 24.2969 64.1406 23.9062C63.8229 23.5156 63.5833 23.0651 63.4219 22.5547C63.2656 22.0443 63.1875 21.4974 63.1875 20.9141V20.6406C63.1875 20.0573 63.2656 19.5104 63.4219 19C63.5833 18.4844 63.8229 18.0312 64.1406 17.6406C64.4583 17.25 64.8568 16.9453 65.3359 16.7266C65.8151 16.5026 66.375 16.3906 67.0156 16.3906C67.6927 16.3906 68.2865 16.526 68.7969 16.7969C69.3073 17.0625 69.7083 17.4349 70 17.9141C70.2969 18.388 70.4505 18.9401 70.4609 19.5703H68.6875C68.6719 19.2578 68.5938 18.9766 68.4531 18.7266C68.3177 18.4714 68.125 18.2682 67.875 18.1172C67.6302 17.9661 67.3359 17.8906 66.9922 17.8906C66.612 17.8906 66.2969 17.9688 66.0469 18.125C65.7969 18.276 65.6016 18.4844 65.4609 18.75C65.3203 19.0104 65.2188 19.3047 65.1562 19.6328C65.099 19.9557 65.0703 20.2917 65.0703 20.6406V20.9141C65.0703 21.263 65.099 21.6016 65.1562 21.9297C65.2135 22.2578 65.3125 22.5521 65.4531 22.8125C65.599 23.0677 65.7969 23.2734 66.0469 23.4297C66.2969 23.5807 66.6146 23.6562 67 23.6562ZM74.4369 18.1562V25H72.5541V16.5469H74.3509L74.4369 18.1562ZM77.0228 16.4922L77.0072 18.2422C76.8926 18.2214 76.7676 18.2057 76.6322 18.1953C76.502 18.1849 76.3718 18.1797 76.2416 18.1797C75.9186 18.1797 75.6348 18.2266 75.39 18.3203C75.1452 18.4089 74.9395 18.5391 74.7728 18.7109C74.6114 18.8776 74.4864 19.0807 74.3978 19.3203C74.3093 19.5599 74.2572 19.8281 74.2416 20.125L73.8119 20.1562C73.8119 19.625 73.864 19.1328 73.9681 18.6797C74.0723 18.2266 74.2285 17.8281 74.4369 17.4844C74.6504 17.1406 74.916 16.8724 75.2337 16.6797C75.5567 16.487 75.9291 16.3906 76.3509 16.3906C76.4655 16.3906 76.5879 16.401 76.7181 16.4219C76.8535 16.4427 76.9551 16.4661 77.0228 16.4922ZM80.8581 16.5469V25H78.9675V16.5469H80.8581ZM78.8425 14.3281C78.8425 14.0417 78.9362 13.8047 79.1237 13.6172C79.3165 13.4245 79.5821 13.3281 79.9206 13.3281C80.254 13.3281 80.517 13.4245 80.7097 13.6172C80.9024 13.8047 80.9987 14.0417 80.9987 14.3281C80.9987 14.6094 80.9024 14.8438 80.7097 15.0312C80.517 15.2188 80.254 15.3125 79.9206 15.3125C79.5821 15.3125 79.3165 15.2188 79.1237 15.0312C78.9362 14.8438 78.8425 14.6094 78.8425 14.3281ZM83.5684 13H85.4512V23.1953L85.2716 25H83.5684V13ZM90.9669 20.6953V20.8594C90.9669 21.4844 90.8966 22.0599 90.7559 22.5859C90.6205 23.1068 90.4122 23.5599 90.1309 23.9453C89.8549 24.3307 89.5111 24.6302 89.0997 24.8438C88.6934 25.0521 88.2221 25.1562 87.6856 25.1562C87.1596 25.1562 86.7012 25.0573 86.3106 24.8594C85.92 24.6615 85.5919 24.3802 85.3262 24.0156C85.0658 23.651 84.8549 23.2161 84.6934 22.7109C84.532 22.2057 84.4174 21.6484 84.3497 21.0391V20.5156C84.4174 19.901 84.532 19.3438 84.6934 18.8438C84.8549 18.3385 85.0658 17.9036 85.3262 17.5391C85.5919 17.1693 85.9174 16.8854 86.3028 16.6875C86.6934 16.4896 87.1492 16.3906 87.67 16.3906C88.2117 16.3906 88.6882 16.4948 89.0997 16.7031C89.5164 16.9115 89.8627 17.2083 90.1387 17.5938C90.4148 17.974 90.6205 18.4271 90.7559 18.9531C90.8966 19.4792 90.9669 20.0599 90.9669 20.6953ZM89.0841 20.8594V20.6953C89.0841 20.3151 89.0528 19.9583 88.9903 19.625C88.9278 19.2865 88.8236 18.9896 88.6778 18.7344C88.5372 18.4792 88.3445 18.2786 88.0997 18.1328C87.8601 17.9818 87.5606 17.9062 87.2012 17.9062C86.8679 17.9062 86.5815 17.9635 86.3419 18.0781C86.1023 18.1927 85.9018 18.349 85.7403 18.5469C85.5789 18.7448 85.4512 18.974 85.3575 19.2344C85.269 19.4948 85.2091 19.776 85.1778 20.0781V21.4922C85.2247 21.8828 85.3236 22.2422 85.4747 22.5703C85.6309 22.8932 85.8497 23.1536 86.1309 23.3516C86.4122 23.5443 86.7742 23.6406 87.2169 23.6406C87.5658 23.6406 87.8601 23.5703 88.0997 23.4297C88.3393 23.2891 88.5294 23.0938 88.67 22.8438C88.8158 22.5885 88.92 22.2917 88.9825 21.9531C89.0502 21.6146 89.0841 21.25 89.0841 20.8594ZM96.9272 25.1562C96.3022 25.1562 95.7371 25.0547 95.2319 24.8516C94.7319 24.6432 94.3048 24.3542 93.9506 23.9844C93.6017 23.6146 93.3334 23.1797 93.1459 22.6797C92.9584 22.1797 92.8647 21.6406 92.8647 21.0625V20.75C92.8647 20.0885 92.961 19.4896 93.1537 18.9531C93.3465 18.4167 93.6147 17.9583 93.9584 17.5781C94.3022 17.1927 94.7084 16.8984 95.1772 16.6953C95.6459 16.4922 96.1537 16.3906 96.7006 16.3906C97.3048 16.3906 97.8334 16.4922 98.2866 16.6953C98.7397 16.8984 99.1147 17.1849 99.4116 17.5547C99.7136 17.9193 99.9376 18.3542 100.083 18.8594C100.234 19.3646 100.31 19.9219 100.31 20.5312V21.3359H93.7787V19.9844H98.4506V19.8359C98.4402 19.4974 98.3725 19.1797 98.2475 18.8828C98.1277 18.5859 97.9428 18.3464 97.6928 18.1641C97.4428 17.9818 97.1095 17.8906 96.6928 17.8906C96.3803 17.8906 96.1017 17.9583 95.8569 18.0938C95.6173 18.224 95.4168 18.4141 95.2553 18.6641C95.0939 18.9141 94.9689 19.2161 94.8803 19.5703C94.797 19.9193 94.7553 20.3125 94.7553 20.75V21.0625C94.7553 21.4323 94.8048 21.776 94.9037 22.0938C95.0079 22.4062 95.159 22.6797 95.3569 22.9141C95.5548 23.1484 95.7944 23.3333 96.0756 23.4688C96.3569 23.599 96.6772 23.6641 97.0366 23.6641C97.4897 23.6641 97.8933 23.5729 98.2475 23.3906C98.6017 23.2083 98.909 22.9505 99.1694 22.6172L100.162 23.5781C99.9793 23.8438 99.7423 24.099 99.4506 24.3438C99.159 24.5833 98.8022 24.7786 98.3803 24.9297C97.9636 25.0807 97.4793 25.1562 96.9272 25.1562Z" fill="white"/>
<path d="M141 10L117 21.25L124.67 23.6172L136.5 14.375L127.502 24.4913L127.509 24.4936L127.5 24.4913V30L131.801 25.8183L137.25 27.5L141 10Z" fill="white"/>
</symbol>


<symbol id="name" viewBox="0 0 24 24" fill="none">
<path d="M9 12C10.6575 12 12 10.6575 12 9C12 7.3425 10.6575 6 9 6C7.3425 6 6 7.3425 6 9C6 10.6575 7.3425 12 9 12ZM9 13.5C6.9975 13.5 3 14.505 3 16.5V17.25C3 17.6625 3.3375 18 3.75 18H14.25C14.6625 18 15 17.6625 15 17.25V16.5C15 14.505 11.0025 13.5 9 13.5Z" fill="#4D5AE5"/>
</symbol>


<symbol id="phonee" width="18" height="24" viewBox="0 0 18 24" fill="none" xmlns="http://www.w3.org/2000/svg">
<path d="M14.7263 13.8651L12.8881 13.6552C12.4467 13.6046 12.0125 13.7566 11.7013 14.0677L10.3697 15.3993C8.3217 14.3572 6.64276 12.6855 5.60067 10.6303L6.93947 9.29144C7.25065 8.98025 7.40263 8.54605 7.35197 8.1046L7.1421 6.28092C7.05526 5.55 6.44013 5 5.70198 5H4.45002C3.63226 5 2.952 5.68026 3.00266 6.49802C3.38621 12.6783 8.32894 17.6138 14.5019 17.9973C15.3197 18.048 15.9999 17.3677 15.9999 16.55V15.298C16.0072 14.5671 15.4572 13.952 14.7263 13.8651Z" fill="#2E2F42"/>
</symbol>


<symbol id="email" width="18" height="24" viewBox="0 0 18 24" fill="none" xmlns="http://www.w3.org/2000/svg">
<path d="M15 6H3C2.175 6 1.5075 6.675 1.5075 7.5L1.5 16.5C1.5 17.325 2.175 18 3 18H15C15.825 18 16.5 17.325 16.5 16.5V7.5C16.5 6.675 15.825 6 15 6ZM14.7 9.1875L9.3975 12.5025C9.1575 12.6525 8.8425 12.6525 8.6025 12.5025L3.3 9.1875C3.1125 9.0675 3 8.865 3 8.6475C3 8.145 3.5475 7.845 3.975 8.1075L9 11.25L14.025 8.1075C14.4525 7.845 15 8.145 15 8.6475C15 8.865 14.8875 9.0675 14.7 9.1875Z" fill="#2E2F42"/>
</symbol>


<symbol id="box" width="16" height="16" viewBox="0 0 16 16" fill="none" xmlns="http://www.w3.org/2000/svg">
<rect x="0.5" y="0.5" width="15" height="15" rx="1.5" stroke="#2E2F42" stroke-opacity="0.4"/>
</symbol>

<symbol id="x" width="24" height="24" viewBox="0 0 24 24" fill="none" xmlns="http://www.w3.org/2000/svg">

<path d="M16 8.80571L15.1943 8L12 11.1943L8.80571 8L8 8.80571L11.1943 12L8 15.1943L8.80571 16L12 12.8057L15.1943 16L16 15.1943L12.8057 12L16 8.80571Z" fill="#2E2F42"/>
</symbol>



<symbol id="threelines" width="24" height="24" viewBox="0 0 24 24" fill="none" xmlns="http://www.w3.org/2000/svg">
<path fill-rule="evenodd" clip-rule="evenodd" d="M3.59961 6.00078C3.59961 5.68252 3.72604 5.3773 3.95108 5.15225C4.17612 4.92721 4.48135 4.80078 4.79961 4.80078H19.1996C19.5179 4.80078 19.8231 4.92721 20.0481 5.15225C20.2732 5.3773 20.3996 5.68252 20.3996 6.00078C20.3996 6.31904 20.2732 6.62427 20.0481 6.84931C19.8231 7.07435 19.5179 7.20078 19.1996 7.20078H4.79961C4.48135 7.20078 4.17612 7.07435 3.95108 6.84931C3.72604 6.62427 3.59961 6.31904 3.59961 6.00078Z" fill="#2F2F37"/>
<path fill-rule="evenodd" clip-rule="evenodd" d="M3.59961 12.0008C3.59961 11.6825 3.72604 11.3773 3.95108 11.1523C4.17612 10.9272 4.48135 10.8008 4.79961 10.8008H19.1996C19.5179 10.8008 19.8231 10.9272 20.0481 11.1523C20.2732 11.3773 20.3996 11.6825 20.3996 12.0008C20.3996 12.319 20.2732 12.6243 20.0481 12.8493C19.8231 13.0744 19.5179 13.2008 19.1996 13.2008H4.79961C4.48135 13.2008 4.17612 13.0744 3.95108 12.8493C3.72604 12.6243 3.59961 12.319 3.59961 12.0008Z" fill="#2F2F37"/>
<path fill-rule="evenodd" clip-rule="evenodd" d="M3.59961 18.0008C3.59961 17.6825 3.72604 17.3773 3.95108 17.1523C4.17612 16.9272 4.48135 16.8008 4.79961 16.8008H19.1996C19.5179 16.8008 19.8231 16.9272 20.0481 17.1523C20.2732 17.3773 20.3996 17.6825 20.3996 18.0008C20.3996 18.319 20.2732 18.6243 20.0481 18.8493C19.8231 19.0744 19.5179 19.2008 19.1996 19.2008H4.79961C4.48135 19.2008 4.17612 19.0744 3.95108 18.8493C3.72604 18.6243 3.59961 18.319 3.59961 18.0008Z" fill="#2F2F37"/>
</symbol>



</defs>
</svg>

















